<?xml version="1.0" encoding="UTF-8"?>
<svg xmlns="http://www.w3.org/2000/svg" xmlns:xlink="http://www.w3.org/1999/xlink" width="97.565" height="33.898" viewBox="0 0 97.565 33.898">
  <defs>
    <clipPath id="clip-path">
      <path id="Path_625" data-name="Path 625" d="M0-341.325H97.565v-33.9H0Z" transform="translate(0 375.223)" fill="none"></path>
    </clipPath>
  </defs>
  <g id="Group_3953" data-name="Group 3953" transform="translate(0 375.224)">
    <g id="Group_2717" data-name="Group 2717" transform="translate(0 -375.224)" clip-path="url(#clip-path)">
      <g id="Group_2715" data-name="Group 2715" transform="translate(0 5.301)">
        <path id="Path_623" data-name="Path 623" d="M-32.885-110.586a2.241,2.241,0,0,0,.683.8,2.946,2.946,0,0,0,1,.455,4.718,4.718,0,0,0,1.187.149,6.164,6.164,0,0,0,.89-.069,3.1,3.1,0,0,0,.89-.267,1.941,1.941,0,0,0,.693-.544,1.366,1.366,0,0,0,.277-.881,1.24,1.24,0,0,0-.366-.93,2.9,2.9,0,0,0-.96-.594,9.568,9.568,0,0,0-1.346-.416q-.752-.178-1.524-.4A13.466,13.466,0,0,1-33-113.762a5.294,5.294,0,0,1-1.346-.742,3.494,3.494,0,0,1-.96-1.138,3.452,3.452,0,0,1-.366-1.652,3.7,3.7,0,0,1,.465-1.89,4.209,4.209,0,0,1,1.217-1.336,5.3,5.3,0,0,1,1.7-.792,7.247,7.247,0,0,1,1.9-.257,9,9,0,0,1,2.127.247,5.313,5.313,0,0,1,1.811.8,4.058,4.058,0,0,1,1.257,1.415,4.342,4.342,0,0,1,.465,2.088H-27.74a2.5,2.5,0,0,0-.267-1.049,1.751,1.751,0,0,0-.6-.653,2.559,2.559,0,0,0-.861-.336,5.309,5.309,0,0,0-1.059-.1,3.652,3.652,0,0,0-.752.079,2.016,2.016,0,0,0-.683.277,1.713,1.713,0,0,0-.5.495,1.327,1.327,0,0,0-.2.752,1.267,1.267,0,0,0,.158.673,1.41,1.41,0,0,0,.623.475,7.916,7.916,0,0,0,1.286.435q.821.218,2.147.554.4.079,1.1.287a5.271,5.271,0,0,1,1.4.663,4.22,4.22,0,0,1,1.2,1.217,3.464,3.464,0,0,1,.5,1.949,4.32,4.32,0,0,1-.376,1.8,3.911,3.911,0,0,1-1.118,1.435,5.369,5.369,0,0,1-1.84.94,8.705,8.705,0,0,1-2.543.336,8.936,8.936,0,0,1-2.266-.287,5.692,5.692,0,0,1-1.939-.9,4.441,4.441,0,0,1-1.336-1.563,4.664,4.664,0,0,1-.475-2.256h3.008a2.589,2.589,0,0,0,.257,1.207" transform="translate(36.151 121.569)" fill="#fff"></path>
      </g>
      <g id="Group_2716" data-name="Group 2716" transform="translate(13.12 5.301)">
        <path id="Path_624" data-name="Path 624" d="M-4.782-45.53A7.061,7.061,0,0,1-3.417-47.9,6.246,6.246,0,0,1-1.23-49.478a7.138,7.138,0,0,1,2.919-.574,7.122,7.122,0,0,1,2.929.574A6.27,6.27,0,0,1,6.794-47.9,7.06,7.06,0,0,1,8.16-45.53a8.831,8.831,0,0,1,.475,2.938,8.535,8.535,0,0,1-.475,2.879,6.877,6.877,0,0,1-1.365,2.325,6.272,6.272,0,0,1-2.177,1.553,7.228,7.228,0,0,1-2.929.564,7.244,7.244,0,0,1-2.919-.564,6.249,6.249,0,0,1-2.187-1.553,6.879,6.879,0,0,1-1.365-2.325,8.533,8.533,0,0,1-.475-2.879,8.828,8.828,0,0,1,.475-2.938m2.84,4.67a4.672,4.672,0,0,0,.663,1.514A3.393,3.393,0,0,0-.092-38.268a3.625,3.625,0,0,0,1.781.406,3.626,3.626,0,0,0,1.781-.406,3.4,3.4,0,0,0,1.187-1.078A4.678,4.678,0,0,0,5.32-40.86a7.193,7.193,0,0,0,.208-1.732,7.735,7.735,0,0,0-.208-1.8,4.773,4.773,0,0,0-.663-1.553A3.366,3.366,0,0,0,3.47-47.034a3.629,3.629,0,0,0-1.781-.406,3.628,3.628,0,0,0-1.781.406A3.362,3.362,0,0,0-1.28-45.946a4.767,4.767,0,0,0-.663,1.553,7.735,7.735,0,0,0-.208,1.8,7.193,7.193,0,0,0,.208,1.732" transform="translate(5.257 50.052)" fill="#fff"></path>
      </g>
    </g>
    <g id="Group_2718" data-name="Group 2718" transform="translate(27.645 -369.586)">
      <path id="Path_626" data-name="Path 626" d="M-85.88,0-80.6,14.129h-3.225l-1.069-3.146h-5.284l-1.108,3.146h-3.127L-89.066,0Zm.178,8.667-1.781-5.185h-.04l-1.84,5.185Z" transform="translate(94.409)" fill="#fff"></path>
    </g>
    <g id="Group_2722" data-name="Group 2722" transform="translate(0 -375.224)" clip-path="url(#clip-path)">
      <g id="Group_2719" data-name="Group 2719" transform="translate(42.684 5.638)">
        <path id="Path_627" data-name="Path 627" d="M-64.16,0A5.885,5.885,0,0,1-61.9.386,4.223,4.223,0,0,1-60.39,1.4,3.918,3.918,0,0,1-59.54,2.85a5.343,5.343,0,0,1,.267,1.682A5.37,5.37,0,0,1-59.54,6.2a3.9,3.9,0,0,1-.851,1.454A4.22,4.22,0,0,1-61.9,8.677a5.885,5.885,0,0,1-2.256.386h-3.265v5.066h-3.107V0Zm-.851,6.649a6.5,6.5,0,0,0,1.029-.079,2.392,2.392,0,0,0,.871-.307,1.672,1.672,0,0,0,.6-.643,2.261,2.261,0,0,0,.228-1.088,2.262,2.262,0,0,0-.228-1.088,1.674,1.674,0,0,0-.6-.643,2.4,2.4,0,0,0-.871-.307,6.531,6.531,0,0,0-1.029-.079h-2.414V6.649Z" transform="translate(70.532)" fill="#fff"></path>
      </g>
      <g id="Group_2720" data-name="Group 2720" transform="translate(55.883 5.638)">
        <path id="Path_628" data-name="Path 628" d="M-66.95,0a8.794,8.794,0,0,1,1.84.178,3.978,3.978,0,0,1,1.425.584,2.719,2.719,0,0,1,.92,1.078A3.791,3.791,0,0,1-62.438,3.5a3.1,3.1,0,0,1-.485,1.781,3.523,3.523,0,0,1-1.435,1.167,3.4,3.4,0,0,1,1.949,1.316,3.917,3.917,0,0,1,.643,2.266,3.889,3.889,0,0,1-.416,1.85A3.6,3.6,0,0,1-63.3,13.159a4.948,4.948,0,0,1-1.6.732,7.228,7.228,0,0,1-1.85.238H-73.6V0Zm-.4,5.719a2.232,2.232,0,0,0,1.365-.4,1.5,1.5,0,0,0,.534-1.286,1.644,1.644,0,0,0-.178-.811,1.319,1.319,0,0,0-.475-.495,2.007,2.007,0,0,0-.683-.247,4.539,4.539,0,0,0-.8-.069h-2.909v3.3Zm.178,6a4.148,4.148,0,0,0,.871-.089,2.14,2.14,0,0,0,.732-.3,1.5,1.5,0,0,0,.5-.564,1.943,1.943,0,0,0,.188-.91A1.828,1.828,0,0,0-65.486,8.3a2.619,2.619,0,0,0-1.623-.465h-3.384v3.879Z" transform="translate(73.599)" fill="#fff"></path>
      </g>
      <g id="Group_2721" data-name="Group 2721" transform="translate(69.2 5.301)">
        <path id="Path_629" data-name="Path 629" d="M-4.782-45.53A7.06,7.06,0,0,1-3.417-47.9,6.246,6.246,0,0,1-1.23-49.478a7.138,7.138,0,0,1,2.919-.574,7.121,7.121,0,0,1,2.929.574A6.271,6.271,0,0,1,6.794-47.9,7.062,7.062,0,0,1,8.16-45.53a8.828,8.828,0,0,1,.475,2.938,8.533,8.533,0,0,1-.475,2.879,6.88,6.88,0,0,1-1.365,2.325,6.274,6.274,0,0,1-2.177,1.553,7.227,7.227,0,0,1-2.929.564,7.244,7.244,0,0,1-2.919-.564,6.249,6.249,0,0,1-2.187-1.553,6.878,6.878,0,0,1-1.365-2.325,8.535,8.535,0,0,1-.475-2.879,8.831,8.831,0,0,1,.475-2.938m2.84,4.67a4.67,4.67,0,0,0,.663,1.514A3.392,3.392,0,0,0-.092-38.268a3.624,3.624,0,0,0,1.781.406,3.626,3.626,0,0,0,1.781-.406,3.4,3.4,0,0,0,1.187-1.078A4.678,4.678,0,0,0,5.32-40.86a7.189,7.189,0,0,0,.208-1.732,7.73,7.73,0,0,0-.208-1.8,4.773,4.773,0,0,0-.663-1.553A3.368,3.368,0,0,0,3.47-47.034a3.629,3.629,0,0,0-1.781-.406,3.627,3.627,0,0,0-1.781.406A3.36,3.36,0,0,0-1.28-45.946a4.765,4.765,0,0,0-.663,1.553,7.735,7.735,0,0,0-.208,1.8,7.193,7.193,0,0,0,.208,1.732" transform="translate(5.257 50.052)" fill="#fff"></path>
      </g>
    </g>
    <g id="Group_2723" data-name="Group 2723" transform="translate(83.745 -369.586)">
      <path id="Path_631" data-name="Path 631" d="M-3.785,0h3.6l2.77,4.512L5.456,0h3.4L4.328,6.748l4.927,7.381h-3.7L2.468,9.241-.678,14.129H-4.161l4.927-7.4Z" transform="translate(4.161)" fill="#fff"></path>
    </g>
    <path id="Path_632" data-name="Path 632" d="M618.639-372.129h41.677v-3.1H618.639Z" transform="translate(-562.751)" fill="#fff"></path>
    <path id="Path_633" data-name="Path 633" d="M618.535-125.18h41.677v-3.1H618.535Z" transform="translate(-562.657 -224.64)" fill="#fff"></path>
    <g id="Group_2724" data-name="Group 2724" transform="translate(56.236 -346.624)">
      <path id="Path_634" data-name="Path 634" d="M-370.016,0V1.4h1.422V5.3h1.6V1.4h1.414V0Zm-4.559,0V2.668L-376.417,0h-1.652V5.3h1.6V2.454l1.954,2.843h1.541V0Zm-10.61,0V5.3h4.019V3.963h-2.414V3.288h2.359V1.954h-2.359V1.334h2.414V0Zm-6.639,0V5.3h3.613V3.9h-2.009V0Zm-6.639,0-1.954,5.3h1.739l.206-.683h2.033l.207.683h1.739L-396.447,0Zm1.009,1.414.6,1.866h-1.207ZM-406.763,0V1.4h1.422V5.3h1.6V1.4h1.414V0Z" transform="translate(406.763)" fill="#fff"></path>
    </g>
  </g>
</svg>
