<?xml version="1.0" encoding="UTF-8"?>
<svg id="Layer_2" data-name="Layer 2" xmlns="http://www.w3.org/2000/svg" viewBox="0 0 97.56 33.91">
  <defs>
    <style>
      .cls-1 {
        fill: #fc6e3e;
        stroke-width: 0px;
      }
    </style>
  </defs>
  <g id="Layer_1-2" data-name="Layer 1">
    <g>
      <path id="Path_623" data-name="Path 623" class="cls-1" d="M3.26,16.29c.16.32.4.59.68.8.3.21.64.37,1,.46.39.1.79.15,1.19.15.3,0,.6-.02.89-.07.31-.04.61-.13.89-.27.27-.13.51-.31.69-.54.19-.25.29-.56.28-.88.01-.35-.12-.69-.37-.93-.28-.26-.6-.46-.96-.59-.44-.17-.89-.31-1.35-.42-.5-.12-1.01-.25-1.52-.4-.52-.13-1.04-.29-1.54-.48-.48-.18-.94-.43-1.35-.74-.4-.31-.73-.69-.96-1.14-.26-.51-.38-1.08-.37-1.65-.02-.66.14-1.31.47-1.89.3-.53.72-.98,1.22-1.34.52-.36,1.09-.63,1.7-.79.62-.17,1.26-.26,1.9-.26.72,0,1.43.08,2.13.25.65.15,1.26.42,1.81.8.52.37.96.85,1.26,1.42.33.65.49,1.36.47,2.09h-3.01c-.01-.36-.1-.72-.27-1.05-.14-.27-.35-.49-.6-.65-.26-.16-.56-.28-.86-.34-.35-.07-.7-.1-1.06-.1-.25,0-.5.03-.75.08-.24.05-.47.14-.68.28-.2.13-.37.3-.5.5-.14.23-.21.49-.2.75-.01.23.04.47.16.67.16.21.37.38.62.47.42.18.85.33,1.29.43.55.15,1.26.33,2.15.55.27.05.63.15,1.1.29.5.15.97.37,1.4.66.48.32.89.73,1.2,1.22.36.59.53,1.26.5,1.95,0,.62-.12,1.23-.38,1.8-.25.56-.64,1.05-1.12,1.43-.55.43-1.17.75-1.84.94-.83.24-1.68.35-2.54.34-.76,0-1.53-.09-2.27-.29-.7-.17-1.36-.48-1.94-.9-.56-.41-1.02-.94-1.34-1.56C.13,16.63-.03,15.86,0,15.08h3.01c-.01.42.08.83.26,1.21"/>
      <path id="Path_624" data-name="Path 624" class="cls-1" d="M13.59,9.83c.3-.87.76-1.68,1.37-2.37.61-.68,1.35-1.22,2.19-1.58.92-.39,1.92-.59,2.92-.57,1.01-.02,2,.18,2.93.57.83.36,1.57.9,2.18,1.58.61.69,1.07,1.5,1.37,2.37.32.95.48,1.94.48,2.94,0,.98-.15,1.95-.48,2.88-.3.86-.76,1.65-1.36,2.33-.61.67-1.35,1.2-2.18,1.55-.93.39-1.92.58-2.93.56-1,.02-2-.18-2.92-.56-.83-.35-1.58-.88-2.19-1.55-.6-.68-1.07-1.47-1.36-2.33-.32-.93-.48-1.9-.47-2.88,0-1,.15-1.99.47-2.94M16.43,14.5c.13.54.35,1.05.66,1.51.3.45.71.82,1.19,1.08.55.29,1.16.42,1.78.41.62.02,1.23-.12,1.78-.41.48-.26.88-.63,1.19-1.08.31-.46.53-.97.66-1.51.14-.57.21-1.15.21-1.73,0-.61-.07-1.21-.21-1.8-.13-.55-.35-1.08-.66-1.55-.3-.45-.71-.83-1.19-1.09-.55-.28-1.16-.42-1.78-.41-.62-.02-1.23.12-1.78.41-.48.26-.89.63-1.19,1.09-.31.47-.54,1-.66,1.55-.14.59-.21,1.19-.21,1.8,0,.58.07,1.17.21,1.73"/>
      <path id="Path_626" data-name="Path 626" class="cls-1" d="M36.17,5.64l5.28,14.13h-3.22l-1.07-3.15h-5.28l-1.11,3.15h-3.13l5.35-14.13h3.19ZM36.35,14.31l-1.78-5.18h-.04l-1.84,5.18h3.66Z"/>
      <path id="Path_627" data-name="Path 627" class="cls-1" d="M49.05,5.64c.77-.02,1.54.11,2.26.39.57.22,1.09.57,1.51,1.01.38.42.67.91.85,1.45.18.54.27,1.11.27,1.68,0,.57-.09,1.13-.27,1.67-.17.54-.46,1.04-.85,1.45-.42.45-.94.8-1.51,1.02-.72.28-1.49.41-2.26.39h-3.26v5.07h-3.11V5.64h6.37ZM48.2,12.29c.34,0,.69-.03,1.03-.08.31-.04.6-.15.87-.31.25-.16.46-.38.6-.64.17-.34.24-.71.23-1.09.02-.38-.06-.75-.23-1.09-.14-.26-.35-.49-.6-.64-.27-.16-.56-.26-.87-.31-.34-.05-.68-.08-1.03-.08h-2.41v4.23h2.41Z"/>
      <path id="Path_628" data-name="Path 628" class="cls-1" d="M62.53,5.64c.62,0,1.23.05,1.84.18.51.1.99.3,1.42.58.4.27.71.64.92,1.08.23.52.34,1.09.33,1.66.02.63-.15,1.25-.49,1.78-.37.51-.86.91-1.44,1.17.79.19,1.48.66,1.95,1.32.44.67.67,1.46.64,2.27.02.64-.13,1.28-.42,1.85-.27.51-.65.95-1.12,1.28-.49.34-1.03.59-1.6.73-.6.16-1.23.24-1.85.24h-6.85V5.64h6.65ZM62.13,11.36c.49.02.97-.12,1.36-.4.38-.32.58-.8.53-1.29.01-.28-.05-.56-.18-.81-.11-.2-.28-.37-.47-.49-.21-.12-.44-.21-.68-.25-.26-.05-.53-.07-.8-.07h-2.91v3.3h3.15ZM62.3,17.36c.29,0,.58-.03.87-.09.26-.05.51-.16.73-.3.21-.14.38-.34.5-.56.14-.28.2-.6.19-.91.06-.59-.16-1.17-.61-1.56-.47-.33-1.05-.49-1.62-.47h-3.38v3.88h3.32Z"/>
      <path id="Path_629" data-name="Path 629" class="cls-1" d="M69.67,9.83c.3-.87.76-1.68,1.37-2.37.61-.68,1.35-1.22,2.19-1.58.92-.39,1.92-.59,2.92-.57,1.01-.02,2,.18,2.93.57.83.36,1.57.9,2.18,1.58.61.69,1.07,1.5,1.37,2.37.32.95.48,1.94.48,2.94,0,.98-.15,1.95-.48,2.88-.3.86-.76,1.65-1.36,2.33-.61.67-1.35,1.2-2.18,1.55-.93.39-1.92.58-2.93.56-1,.02-2-.18-2.92-.56-.83-.35-1.58-.88-2.19-1.55-.6-.68-1.07-1.47-1.36-2.33-.32-.93-.48-1.9-.47-2.88,0-1,.15-1.99.47-2.94M72.51,14.5c.13.54.35,1.05.66,1.51.3.45.71.82,1.19,1.08.55.29,1.16.42,1.78.41.62.02,1.23-.12,1.78-.41.48-.26.88-.63,1.19-1.08.31-.46.53-.97.66-1.51.14-.57.21-1.15.21-1.73,0-.61-.07-1.21-.21-1.8-.13-.55-.35-1.08-.66-1.55-.3-.45-.71-.83-1.19-1.09-.55-.28-1.16-.42-1.78-.41-.62-.02-1.23.12-1.78.41-.48.26-.89.63-1.19,1.09-.31.47-.54,1-.66,1.55-.14.59-.21,1.19-.21,1.8,0,.58.07,1.17.21,1.73"/>
      <path id="Path_631" data-name="Path 631" class="cls-1" d="M84.12,5.64h3.6l2.77,4.51,2.87-4.51h3.4l-4.53,6.75,4.93,7.38h-3.7l-3.09-4.89-3.15,4.89h-3.48l4.93-7.4-4.55-6.73Z"/>
      <path id="Path_632" data-name="Path 632" class="cls-1" d="M55.88,3.1h41.68V0h-41.68v3.1Z"/>
      <path id="Path_633" data-name="Path 633" class="cls-1" d="M55.87,25.41h41.68v-3.1h-41.68v3.1Z"/>
      <path id="Path_634" data-name="Path 634" class="cls-1" d="M92.98,28.61v1.4h1.42v3.9h1.6v-3.9h1.41v-1.4h-4.44ZM88.42,28.61v2.67l-1.84-2.67h-1.65v5.3h1.6v-2.85l1.95,2.84h1.54v-5.3h-1.6ZM77.81,28.61v5.3h4.02v-1.34h-2.41v-.67h2.36v-1.33h-2.36v-.62h2.41v-1.33h-4.02ZM71.17,28.61v5.3h3.61v-1.4h-2.01v-3.9h-1.6ZM64.53,28.61l-1.95,5.3h1.74l.21-.68h2.03l.21.68h1.74l-1.95-5.3h-2.02ZM65.54,30.02l.6,1.87h-1.21l.61-1.87ZM56.23,28.61v1.4h1.42v3.9h1.6v-3.9h1.41v-1.4h-4.44Z"/>
    </g>
  </g>
</svg>